<?xml version="1.0" standalone="no"?>
<!DOCTYPE svg PUBLIC "-//W3C//DTD SVG 20010904//EN"
 "http://www.w3.org/TR/2001/REC-SVG-20010904/DTD/svg10.dtd">
<svg version="1.0" xmlns="http://www.w3.org/2000/svg"
 width="1024.000000pt" height="1024.000000pt" viewBox="0 0 1024.000000 1024.000000"
 preserveAspectRatio="xMidYMid meet">

<g transform="translate(0.000000,1024.000000) scale(0.100000,-0.100000)"
fill="#000000" stroke="none">
<path d="M4781 8204 c-262 -36 -531 -113 -794 -225 -176 -76 -209 -97 -236
-152 -41 -85 -18 -167 59 -209 50 -27 98 -19 221 37 263 121 412 170 684 225
445 90 946 22 1430 -195 33 -15 84 -38 114 -51 72 -33 100 -38 148 -25 50 14
99 66 109 116 9 51 -19 117 -67 159 -64 54 -440 205 -638 256 -42 10 -128 28
-191 39 -63 11 -131 23 -150 27 -19 3 -159 8 -310 10 -203 2 -302 -1 -379 -12z"/>
<path d="M4800 7734 c-379 -54 -847 -248 -1160 -482 -260 -193 -513 -460 -740
-780 l-65 -92 -178 0 c-209 0 -233 -7 -278 -79 -32 -50 -37 -93 -15 -144 17
-43 78 -95 119 -102 18 -4 125 -5 238 -3 270 4 265 2 410 208 240 343 513 620
780 793 433 281 838 400 1299 383 311 -11 579 -87 907 -256 237 -123 409 -249
611 -450 138 -137 243 -265 383 -463 80 -115 117 -159 151 -180 l45 -28 240
-1 c219 -1 242 0 272 18 85 50 101 165 35 244 -44 52 -56 55 -253 60 l-185 5
-63 85 c-378 510 -647 760 -1047 975 -220 117 -551 240 -726 269 -19 3 -48 8
-65 11 -168 28 -550 33 -715 9z"/>
<path d="M3412 7570 c-62 -14 -102 -70 -102 -142 0 -142 185 -189 260 -66 64
105 -36 236 -158 208z"/>
<path d="M6765 7573 c-121 -32 -143 -213 -32 -266 126 -60 251 67 188 191 -28
55 -99 89 -156 75z"/>
<path d="M2640 7436 c-176 -51 -300 -219 -300 -405 1 -121 83 -271 186 -337
114 -73 276 -85 392 -28 169 83 264 280 221 463 -29 128 -128 250 -234 290
-74 28 -200 36 -265 17z m145 -290 c92 -39 100 -163 13 -207 -47 -24 -75 -24
-112 0 -82 54 -72 168 18 207 39 17 40 17 81 0z"/>
<path d="M7383 7431 c-105 -39 -196 -122 -241 -219 -37 -81 -43 -215 -13 -305
41 -122 101 -189 221 -246 48 -23 67 -26 155 -25 128 0 192 24 274 99 207 192
160 541 -92 676 -56 30 -72 34 -157 36 -75 3 -106 -1 -147 -16z m188 -298 c35
-21 61 -81 53 -123 -4 -17 -20 -42 -36 -55 -53 -45 -103 -45 -156 0 -102 85
23 246 139 178z"/>
<path d="M4989 7166 c-2 -2 -31 -6 -64 -10 -215 -23 -461 -99 -655 -204 -222
-119 -374 -237 -587 -453 -176 -179 -202 -210 -427 -501 l-167 -218 -638 0
c-736 0 -699 4 -791 -89 -66 -67 -90 -127 -90 -221 0 -115 63 -214 173 -272
l42 -23 651 -3 651 -3 209 -217 c440 -458 553 -561 785 -718 236 -159 551
-283 789 -310 41 -5 167 -9 280 -8 232 0 342 17 534 79 113 37 353 147 419
192 57 39 91 103 84 158 -6 55 -43 106 -93 130 -56 26 -116 16 -197 -34 -131
-80 -314 -154 -469 -188 -104 -23 -495 -26 -593 -4 -301 65 -578 214 -812 434
l-53 50 0 137 c0 77 -6 173 -14 216 -59 321 -59 538 0 884 8 47 14 150 14 231
l0 147 68 59 c246 217 454 328 774 415 75 20 106 23 318 23 224 0 240 -1 342
-27 120 -31 221 -69 336 -127 140 -71 348 -217 430 -303 32 -34 32 -36 37
-147 3 -63 7 -117 10 -120 9 -15 36 -207 55 -391 22 -216 2 -507 -46 -651 -11
-36 -15 -102 -17 -275 -2 -227 -2 -229 22 -263 50 -70 144 -86 221 -36 48 31
233 216 445 446 33 35 92 98 130 139 l70 75 645 5 c637 5 646 5 690 27 90 43
153 134 173 247 11 66 4 109 -30 179 -25 49 -86 109 -138 133 -50 24 -53 24
-426 24 -207 0 -498 3 -647 7 l-270 6 -49 66 c-211 288 -401 516 -550 662
-236 231 -392 346 -618 454 -212 102 -365 148 -612 184 -67 10 -335 16 -344 7z
m1742 -1345 c185 -211 279 -327 274 -338 -7 -20 -368 -423 -378 -423 -5 0 -6
12 -2 28 50 200 58 550 16 795 -6 38 -5 46 4 35 7 -7 46 -51 86 -97z m-3105
90 c-16 -25 -36 -283 -35 -433 1 -156 25 -367 44 -399 38 -60 -131 112 -343
351 l-49 55 104 125 c149 178 311 353 279 301z m4720 -456 c-17 -13 -89 -15
-462 -15 -243 0 -451 3 -461 8 -10 4 196 9 457 12 261 3 477 6 480 7 3 1 -4
-4 -14 -12z m-5526 -5 c-21 -13 -950 -13 -950 0 0 7 167 10 483 10 315 0 477
-4 467 -10z"/>
<path d="M4980 6533 c-246 -50 -423 -138 -564 -281 -261 -266 -362 -643 -270
-1001 67 -256 182 -430 384 -580 155 -115 302 -174 482 -192 374 -37 716 117
940 422 75 102 160 326 176 465 10 91 -2 309 -22 394 -31 130 -86 257 -155
360 -86 127 -290 291 -427 344 -154 58 -201 67 -364 71 -85 2 -166 1 -180 -2z
m-209 -484 c73 -25 114 -92 107 -176 -8 -89 -62 -143 -151 -151 -182 -15 -257
237 -94 317 47 24 88 26 138 10z m704 -391 l40 -73 0 -120 c0 -112 -2 -124
-27 -172 -80 -150 -190 -214 -367 -210 -90 2 -103 5 -172 39 -76 38 -139 94
-178 161 -21 33 -17 31 36 -22 37 -37 84 -70 128 -92 64 -31 79 -34 175 -36
98 -2 109 0 165 27 78 38 145 102 181 176 24 49 30 74 32 149 4 108 -15 170
-79 255 -40 53 -40 54 -7 23 18 -18 51 -65 73 -105z m-890 -141 c44 -44 52
-79 31 -124 -42 -89 -178 -73 -205 24 -20 70 29 133 102 133 31 0 46 -7 72
-33z m-14 -474 c13 -16 12 -17 -3 -4 -17 13 -22 21 -14 21 2 0 10 -8 17 -17z
m104 -95 c54 -41 185 -103 265 -123 79 -20 255 -28 330 -14 65 12 181 52 230
80 l35 19 -30 -25 c-49 -42 -165 -93 -240 -106 -87 -15 -279 -6 -355 17 -96
28 -191 85 -265 158 -67 65 -60 64 30 -6z"/>
<path d="M2444 4936 c-87 -38 -118 -159 -62 -242 43 -64 81 -74 280 -74 l177
0 147 -167 c389 -441 637 -654 955 -821 277 -147 542 -236 824 -279 140 -21
509 -24 662 -4 473 59 956 276 1356 610 65 54 138 118 164 142 74 72 251 266
360 396 l102 121 189 4 c182 3 190 4 225 28 40 27 77 91 77 133 0 49 -31 108
-73 138 l-40 29 -235 0 c-231 0 -236 0 -277 -24 -23 -14 -59 -47 -81 -73 -105
-130 -365 -412 -486 -529 -247 -238 -468 -387 -748 -507 -166 -70 -351 -124
-490 -142 -30 -4 -64 -9 -75 -12 -11 -3 -117 -7 -235 -10 -199 -5 -336 4 -455
31 -11 2 -42 9 -70 15 -229 52 -553 201 -780 360 -195 136 -447 384 -769 756
-121 140 -108 135 -381 135 -170 -1 -238 -4 -261 -14z"/>
<path d="M2723 4388 c-61 -53 -227 -220 -255 -258 -39 -52 -44 -96 -16 -149
43 -83 119 -111 194 -73 48 25 275 254 299 301 46 91 -35 211 -141 211 -34 0
-51 -7 -81 -32z"/>
<path d="M7360 4398 c-73 -50 -90 -142 -41 -219 32 -51 222 -238 272 -268 73
-45 170 -17 210 59 45 84 17 141 -152 305 -72 69 -142 130 -156 136 -42 16
-98 10 -133 -13z"/>
<path d="M3194 3884 c-57 -28 -89 -114 -65 -177 13 -34 174 -189 219 -209 47
-22 85 -22 129 -1 49 23 73 66 73 133 l0 55 -92 87 c-130 123 -190 149 -264
112z"/>
<path d="M6918 3892 c-32 -13 -181 -156 -210 -201 -33 -53 -35 -78 -8 -130 38
-76 136 -104 208 -61 17 11 73 59 122 107 l90 88 0 53 c0 64 -20 106 -63 132
-32 20 -104 26 -139 12z"/>
<path d="M2650 2960 c-111 -41 -203 -126 -260 -239 -162 -323 36 -725 369
-748 198 -14 370 78 459 246 82 153 84 367 4 515 -42 79 -138 171 -218 208
-64 30 -78 33 -184 36 -95 2 -124 -1 -170 -18z m267 -266 c83 -48 134 -166
113 -260 -14 -62 -42 -113 -82 -151 -42 -40 -76 -53 -140 -53 -129 0 -228 113
-228 259 0 39 35 131 62 161 73 83 180 100 275 44z"/>
<path d="M3668 2965 c-83 -21 -134 -50 -200 -113 -73 -69 -113 -138 -138 -238
-50 -195 -2 -380 135 -518 95 -96 215 -145 285 -116 46 19 70 56 70 106 0 56
-40 104 -121 145 -193 97 -194 405 -2 486 21 8 74 13 150 13 130 0 156 -9 194
-66 22 -33 24 -53 8 -88 -18 -39 -66 -56 -158 -56 -68 0 -84 -3 -101 -20 -46
-46 -26 -86 154 -313 130 -165 180 -212 234 -222 78 -13 153 46 131 103 -5 13
-45 70 -88 126 -43 55 -86 113 -95 128 l-18 27 34 14 c87 38 149 143 150 256
1 139 -97 281 -230 331 -75 29 -305 38 -394 15z"/>
<path d="M6029 2961 c-126 -40 -240 -133 -301 -247 -57 -105 -74 -258 -43
-377 81 -313 448 -469 758 -322 73 35 127 82 176 156 l41 61 0 140 0 140 -29
29 -29 29 -157 0 c-120 0 -163 -4 -185 -15 -76 -39 -80 -167 -6 -216 11 -7 53
-16 91 -19 l70 -5 -41 -40 c-45 -45 -97 -65 -171 -65 -118 0 -211 56 -254 153
-79 179 45 366 242 367 77 0 119 -15 178 -64 75 -62 149 -55 200 19 19 28 23
44 18 80 -2 25 -13 55 -23 67 -42 47 -139 109 -201 128 -86 26 -253 27 -334 1z"/>
<path d="M6823 2969 c-17 -5 -43 -23 -57 -40 l-26 -31 0 -433 0 -433 35 -31
c41 -36 96 -41 146 -15 57 29 59 43 59 491 0 386 -1 410 -20 440 -29 49 -80
68 -137 52z"/>
<path d="M7380 2964 c-162 -45 -296 -197 -335 -381 -18 -86 -18 -130 0 -218
31 -148 124 -275 251 -342 248 -132 657 29 544 214 -41 69 -115 80 -194 31
-73 -46 -155 -51 -230 -14 -86 42 -126 115 -126 231 0 195 190 307 350 207 27
-17 58 -33 69 -37 50 -15 132 41 147 101 16 62 -42 136 -144 186 -60 30 -76
33 -172 35 -70 2 -123 -2 -160 -13z"/>
<path d="M4504 2952 c-43 -37 -44 -43 -44 -486 l0 -426 28 -31 c23 -26 38 -33
79 -36 47 -5 53 -3 89 30 l39 35 4 162 c2 89 7 158 11 153 4 -4 47 -75 95
-158 126 -215 135 -224 215 -224 76 0 100 22 177 161 25 46 64 115 87 153 l41
70 5 -150 c6 -164 17 -201 65 -223 36 -17 90 -15 126 4 57 29 59 44 59 484 0
440 -2 455 -59 484 -77 40 -131 10 -196 -111 -124 -229 -229 -425 -263 -490
-20 -40 -39 -73 -42 -73 -3 0 -18 26 -34 58 -15 31 -72 138 -126 237 -53 99
-116 217 -138 261 -52 103 -87 134 -150 134 -30 -1 -55 -7 -68 -18z"/>
</g>
</svg>
