<?xml version="1.0" standalone="no"?>
<!DOCTYPE svg PUBLIC "-//W3C//DTD SVG 20010904//EN"
 "http://www.w3.org/TR/2001/REC-SVG-20010904/DTD/svg10.dtd">
<svg version="1.0" xmlns="http://www.w3.org/2000/svg"
 width="64.000000pt" height="64.000000pt" viewBox="0 0 64.000000 64.000000"
 preserveAspectRatio="xMidYMid meet">

<g transform="translate(0.000000,64.000000) scale(0.100000,-0.100000)"
fill="#000000" stroke="none">
<path d="M120 535 c0 -18 -5 -25 -20 -25 -20 0 -20 -5 -18 -217 l3 -218 204
-3 c200 -2 204 -3 233 -27 36 -30 52 -31 78 -5 27 27 25 43 -10 83 l-30 35 0
171 0 171 -32 30 -33 29 -187 1 -188 0 0 -25z m352 -22 c2 -23 8 -29 36 -31
l32 -3 0 -151 c0 -126 -2 -149 -14 -139 -7 6 -22 8 -31 4 -15 -5 -17 -3 -10
13 19 45 17 74 -9 119 -17 29 -36 47 -53 51 -27 7 -27 7 -4 15 49 19 6 29
-120 29 -100 0 -130 -3 -127 -12 3 -9 37 -15 99 -19 52 -3 87 -6 78 -7 -31 -4
-66 -42 -78 -85 -28 -100 59 -178 158 -143 20 7 23 6 17 -9 -4 -11 0 -25 10
-36 17 -18 12 -19 -150 -19 l-167 0 3 23 c3 20 9 22 81 25 102 4 100 22 -3 22
l-80 0 0 190 0 190 164 0 165 0 3 -27z m-352 -228 c0 -123 -4 -195 -10 -195
-6 0 -10 72 -10 195 0 123 4 195 10 195 6 0 10 -72 10 -195z m304 60 c-1 -12
-93 -27 -107 -18 -6 3 -1 12 9 20 21 15 100 14 98 -2z m42 -50 c12 -30 12 -39
0 -69 -17 -41 -42 -56 -91 -56 -54 0 -87 37 -83 93 2 23 7 40 13 37 5 -3 8
-19 6 -37 -5 -64 74 -98 120 -52 18 18 21 29 16 70 -7 58 -1 62 19 14z m-73 0
c-6 -17 -25 -15 -31 3 -2 7 5 12 17 12 14 0 19 -5 14 -15z m33 -49 c-11 -46
-81 -46 -92 0 -9 34 2 41 27 18 21 -19 21 -19 38 3 20 26 36 14 27 -21z m164
-178 c0 -30 -32 -20 -77 24 -40 40 -42 43 -26 60 16 18 18 17 60 -24 24 -23
43 -50 43 -60z"/>
<path d="M180 510 c0 -5 5 -10 10 -10 6 0 10 5 10 10 0 6 -4 10 -10 10 -5 0
-10 -4 -10 -10z"/>
<path d="M210 510 c0 -5 5 -10 10 -10 6 0 10 5 10 10 0 6 -4 10 -10 10 -5 0
-10 -4 -10 -10z"/>
<path d="M250 510 c0 -5 5 -10 10 -10 6 0 10 5 10 10 0 6 -4 10 -10 10 -5 0
-10 -4 -10 -10z"/>
<path d="M170 470 c0 -6 32 -10 75 -10 43 0 75 4 75 10 0 6 -32 10 -75 10 -43
0 -75 -4 -75 -10z"/>
<path d="M170 440 c0 -6 42 -10 105 -10 63 0 105 4 105 10 0 6 -42 10 -105 10
-63 0 -105 -4 -105 -10z"/>
<path d="M550 80 c0 -5 5 -10 10 -10 6 0 10 5 10 10 0 6 -4 10 -10 10 -5 0
-10 -4 -10 -10z"/>
</g>
</svg>
